<?xml version="1.0" encoding="iso-8859-1"?>
<!-- Generator: Adobe Illustrator 18.0.0, SVG Export Plug-In . SVG Version: 6.00 Build 0)  -->
<!DOCTYPE svg PUBLIC "-//W3C//DTD SVG 1.1//EN" "http://www.w3.org/Graphics/SVG/1.1/DTD/svg11.dtd">
<svg version="1.1" id="Capa_1" xmlns="http://www.w3.org/2000/svg" xmlns:xlink="http://www.w3.org/1999/xlink" x="0px" y="0px"
	 viewBox="0 0 304.049 304.049" style="enable-background:new 0 0 304.049 304.049;" xml:space="preserve">
<path d="M284.049,257.991h-2.874L170.182,17.672c-3.27-7.081-10.358-11.614-18.157-11.614c-7.799,0-14.887,4.533-18.157,11.614
	L22.874,257.991H20c-11.046,0-20,8.954-20,20s8.954,20,20,20h46c11.046,0,20-8.954,20-20c0-10.738-8.468-19.473-19.087-19.954
	l85.111-184.28l85.111,184.28c-10.619,0.481-19.087,9.216-19.087,19.954c0,11.046,8.954,20,20,20h46c11.046,0,20-8.954,20-20
	S295.095,257.991,284.049,257.991z"/>
<g>
</g>
<g>
</g>
<g>
</g>
<g>
</g>
<g>
</g>
<g>
</g>
<g>
</g>
<g>
</g>
<g>
</g>
<g>
</g>
<g>
</g>
<g>
</g>
<g>
</g>
<g>
</g>
<g>
</g>
</svg>
